<svg width="2000" height="2000" version="1.1" xmlns="http://www.w3.org/2000/svg" desc="Created with imagetracer.js version 1.2.6" ><path fill="rgb(187,187,188)" stroke="rgb(187,187,188)" stroke-width="1" opacity="0.7764705882352941" d="M 1032.5 389 L 1033 396.5 L 1036 407.5 L 1036 413.5 L 1039 423.5 L 1038 423.5 L 1035 416.5 L 1035 411.5 L 1032 398.5 L 1032.5 389 Z " /><path fill="rgb(187,187,188)" stroke="rgb(187,187,188)" stroke-width="1" opacity="0.7764705882352941" d="M 842.5 408 L 843 411.5 L 839.5 420 L 839 417.5 L 842.5 408 Z " /><path fill="rgb(187,187,188)" stroke="rgb(187,187,188)" stroke-width="1" opacity="0.7764705882352941" d="M 1521.5 409 L 1522 411.5 L 1520 419 Q 1517.3 420.1 1518 417.5 L 1521.5 409 Z " /><path fill="rgb(187,187,188)" stroke="rgb(187,187,188)" stroke-width="1" opacity="0.7764705882352941" d="M 833.5 430 L 832.5 432 L 833.5 430 Z " /><path fill="rgb(187,187,188)" stroke="rgb(187,187,188)" stroke-width="1" opacity="0.7764705882352941" d="M 1511.5 431 L 1510.5 433 L 1511.5 431 Z " /><path fill="rgb(187,187,188)" stroke="rgb(187,187,188)" stroke-width="1" opacity="0.7764705882352941" d="M 830.5 434 L 828.5 437 L 830.5 434 Z " /><path fill="rgb(187,187,188)" stroke="rgb(187,187,188)" stroke-width="1" opacity="0.7764705882352941" d="M 1507.5 436 L 1500.5 444 L 1507.5 436 Z " /><path fill="rgb(187,187,188)" stroke="rgb(187,187,188)" stroke-width="1" opacity="0.7764705882352941" d="M 820.5 444 L 817.5 448 L 820.5 444 Z " /><path fill="rgb(187,187,188)" stroke="rgb(187,187,188)" stroke-width="1" opacity="0.7764705882352941" d="M 1495.5 447 L 1494.5 449 L 1495.5 447 Z " /><path fill="rgb(187,187,188)" stroke="rgb(187,187,188)" stroke-width="1" opacity="0.7764705882352941" d="M 814.5 449 L 812.5 452 L 814.5 449 Z " /><path fill="rgb(187,187,188)" stroke="rgb(187,187,188)" stroke-width="1" opacity="0.7764705882352941" d="M 1490.5 451 L 1489.5 453 L 1490.5 451 Z " /><path fill="rgb(187,187,188)" stroke="rgb(187,187,188)" stroke-width="1" opacity="0.7764705882352941" d="M 809.5 453 L 808.5 455 L 809.5 453 Z " /><path fill="rgb(187,187,188)" stroke="rgb(187,187,188)" stroke-width="1" opacity="0.7764705882352941" d="M 1486.5 454 L 1485.5 456 L 1486.5 454 Z " /><path fill="rgb(187,187,188)" stroke="rgb(187,187,188)" stroke-width="1" opacity="0.7764705882352941" d="M 804.5 457 L 803.5 459 L 804.5 457 Z " /><path fill="rgb(187,187,188)" stroke="rgb(187,187,188)" stroke-width="1" opacity="0.7764705882352941" d="M 1481.5 458 L 1480.5 460 L 1481.5 458 Z " /><path fill="rgb(187,187,188)" stroke="rgb(187,187,188)" stroke-width="1" opacity="0.7764705882352941" d="M 800.5 460 L 798.5 463 L 800.5 460 Z " /><path fill="rgb(187,187,188)" stroke="rgb(187,187,188)" stroke-width="1" opacity="0.7764705882352941" d="M 1477.5 461 L 1476.5 463 L 1477.5 461 Z " /><path fill="rgb(187,187,188)" stroke="rgb(187,187,188)" stroke-width="1" opacity="0.7764705882352941" d="M 795.5 464 L 793.5 467 L 795.5 464 Z " /><path fill="rgb(187,187,188)" stroke="rgb(187,187,188)" stroke-width="1" opacity="0.7764705882352941" d="M 1472.5 465 L 1471.5 467 L 1472.5 465 Z " /><path fill="rgb(187,187,188)" stroke="rgb(187,187,188)" stroke-width="1" opacity="0.7764705882352941" d="M 788.5 470 L 776.5 483 L 788.5 470 Z " /><path fill="rgb(187,187,188)" stroke="rgb(187,187,188)" stroke-width="1" opacity="0.7764705882352941" d="M 1466.5 470 L 1452.5 485 L 1466.5 470 Z " /><path fill="rgb(187,187,188)" stroke="rgb(187,187,188)" stroke-width="1" opacity="0.7764705882352941" d="M 773.5 486 L 772.5 488 L 773.5 486 Z " /><path fill="rgb(187,187,188)" stroke="rgb(187,187,188)" stroke-width="1" opacity="0.7764705882352941" d="M 1450.5 487 L 1449.5 489 L 1450.5 487 Z " /><path fill="rgb(187,187,188)" stroke="rgb(187,187,188)" stroke-width="1" opacity="0.7764705882352941" d="M 767.5 494 L 766.5 496 L 767.5 494 Z " /><path fill="rgb(187,187,188)" stroke="rgb(187,187,188)" stroke-width="1" opacity="0.7764705882352941" d="M 742.5 562 L 743 564.5 L 742 564.5 L 742.5 562 Z " /><path fill="rgb(187,187,188)" stroke="rgb(187,187,188)" stroke-width="1" opacity="0.7764705882352941" d="M 1419.5 565 L 1420 567.5 L 1419 567.5 L 1419.5 565 Z " /><path fill="rgb(187,187,188)" stroke="rgb(187,187,188)" stroke-width="1" opacity="0.7764705882352941" d="M 741.5 569 L 742 571.5 L 741 571.5 L 741.5 569 Z " /><path fill="rgb(187,187,188)" stroke="rgb(187,187,188)" stroke-width="1" opacity="0.7764705882352941" d="M 1418.5 572 L 1419 575.5 L 1418 575.5 L 1418.5 572 Z " /><path fill="rgb(187,187,188)" stroke="rgb(187,187,188)" stroke-width="1" opacity="0.7764705882352941" d="M 740.5 578 L 741 581.5 L 740 581.5 L 740.5 578 Z " /><path fill="rgb(187,187,188)" stroke="rgb(187,187,188)" stroke-width="1" opacity="0.7764705882352941" d="M 1417.5 581 L 1418 585.5 L 1417 585.5 L 1417.5 581 Z " /><path fill="rgb(187,187,188)" stroke="rgb(187,187,188)" stroke-width="1" opacity="0.7764705882352941" d="M 739.5 589 L 740 595.5 L 739 595.5 L 739.5 589 Z " /><path fill="rgb(187,187,188)" stroke="rgb(187,187,188)" stroke-width="1" opacity="0.7764705882352941" d="M 1416.5 594 L 1417 602.5 L 1416 602.5 L 1416.5 594 Z " /><path fill="rgb(187,187,188)" stroke="rgb(187,187,188)" stroke-width="1" opacity="0.7764705882352941" d="M 1416.5 615 L 1417 1107.5 L 1416 1107.5 L 1416.5 615 Z " /><path fill="rgb(187,187,188)" stroke="rgb(187,187,188)" stroke-width="1" opacity="0.7764705882352941" d="M 1134.5 617 L 1135 620.5 L 1134 620.5 L 1134.5 617 Z " /><path fill="rgb(187,187,188)" stroke="rgb(187,187,188)" stroke-width="1" opacity="0.7764705882352941" d="M 739.5 724 L 740 729.5 L 739 729.5 L 739.5 724 Z " /><path fill="rgb(187,187,188)" stroke="rgb(187,187,188)" stroke-width="1" opacity="0.7764705882352941" d="M 745.5 746 L 746.5 748 L 745.5 746 Z " /><path fill="rgb(187,187,188)" stroke="rgb(187,187,188)" stroke-width="1" opacity="0.7764705882352941" d="M 748.5 749 L 750.5 752 L 748.5 749 Z " /><path fill="rgb(187,187,188)" stroke="rgb(187,187,188)" stroke-width="1" opacity="0.7764705882352941" d="M 779.5 760 L 782 760.5 L 779.5 761 L 779.5 760 Z " /><path fill="rgb(187,187,188)" stroke="rgb(187,187,188)" stroke-width="1" opacity="0.7764705882352941" d="M 786.5 761 L 791 761.5 L 786.5 762 L 786.5 761 Z " /><path fill="rgb(187,187,188)" stroke="rgb(187,187,188)" stroke-width="1" opacity="0.7764705882352941" d="M 801.5 762 L 808 762.5 L 801.5 763 L 801.5 762 Z " /><path fill="rgb(187,187,188)" stroke="rgb(187,187,188)" stroke-width="1" opacity="0.7764705882352941" d="M 820.5 762 L 828 763.5 L 819.5 764 L 820.5 762 Z " /><path fill="rgb(187,187,188)" stroke="rgb(187,187,188)" stroke-width="1" opacity="0.7764705882352941" d="M 1041.5 762 L 1044 762.5 L 1041.5 763 L 1041.5 762 Z " /><path fill="rgb(187,187,188)" stroke="rgb(187,187,188)" stroke-width="1" opacity="0.7764705882352941" d="M 841.5 885 L 1037 885.5 L 841.5 886 L 841.5 885 Z " /><path fill="rgb(187,187,188)" stroke="rgb(187,187,188)" stroke-width="1" opacity="0.7764705882352941" d="M 809.5 886 L 822 886.5 L 809.5 887 L 809.5 886 Z " /><path fill="rgb(187,187,188)" stroke="rgb(187,187,188)" stroke-width="1" opacity="0.7764705882352941" d="M 1055.5 886 L 1063 886.5 L 1055.5 887 L 1055.5 886 Z " /><path fill="rgb(187,187,188)" stroke="rgb(187,187,188)" stroke-width="1" opacity="0.7764705882352941" d="M 792.5 887 L 799 887.5 L 792.5 888 L 792.5 887 Z " /><path fill="rgb(187,187,188)" stroke="rgb(187,187,188)" stroke-width="1" opacity="0.7764705882352941" d="M 1074.5 887 L 1081 887.5 L 1074.5 888 L 1074.5 887 Z " /><path fill="rgb(187,187,188)" stroke="rgb(187,187,188)" stroke-width="1" opacity="0.7764705882352941" d="M 783.5 888 L 787 888.5 L 783.5 889 L 783.5 888 Z " /><path fill="rgb(187,187,188)" stroke="rgb(187,187,188)" stroke-width="1" opacity="0.7764705882352941" d="M 1086.5 888 L 1091 888.5 L 1086.5 889 L 1086.5 888 Z " /><path fill="rgb(187,187,188)" stroke="rgb(187,187,188)" stroke-width="1" opacity="0.7764705882352941" d="M 776.5 889 L 779 889.5 L 776.5 890 L 776.5 889 Z " /><path fill="rgb(187,187,188)" stroke="rgb(187,187,188)" stroke-width="1" opacity="0.7764705882352941" d="M 770.5 890 L 773 890.5 L 770.5 891 L 770.5 890 Z " /><path fill="rgb(187,187,188)" stroke="rgb(187,187,188)" stroke-width="1" opacity="0.7764705882352941" d="M 1122.5 897 L 1123.5 899 L 1122.5 897 Z " /><path fill="rgb(187,187,188)" stroke="rgb(187,187,188)" stroke-width="1" opacity="0.7764705882352941" d="M 747.5 900 L 745.5 903 L 747.5 900 Z " /><path fill="rgb(187,187,188)" stroke="rgb(187,187,188)" stroke-width="1" opacity="0.7764705882352941" d="M 739.5 918 L 740 920.5 L 739 920.5 L 739.5 918 Z " /><path fill="rgb(187,187,188)" stroke="rgb(187,187,188)" stroke-width="1" opacity="0.7764705882352941" d="M 1134.5 920 L 1135 924.5 L 1134 924.5 L 1134.5 920 Z " /><path fill="rgb(187,187,188)" stroke="rgb(187,187,188)" stroke-width="1" opacity="0.7764705882352941" d="M 1135.5 942 L 1136 974.5 L 1135 974.5 Q 1136.3 969.8 1134 968.5 L 1135 967.5 L 1135.5 942 Z " /><path fill="rgb(187,187,188)" stroke="rgb(187,187,188)" stroke-width="1" opacity="0.7764705882352941" d="M 739.5 1107 L 740 1116.5 L 739 1116.5 L 739.5 1107 Z " /><path fill="rgb(187,187,188)" stroke="rgb(187,187,188)" stroke-width="1" opacity="0.7764705882352941" d="M 1417.5 1121 L 1418 1126.5 L 1417 1126.5 L 1417.5 1121 Z " /><path fill="rgb(187,187,188)" stroke="rgb(187,187,188)" stroke-width="1" opacity="0.7764705882352941" d="M 740.5 1126 L 741 1130.5 L 740 1130.5 L 740.5 1126 Z " /><path fill="rgb(187,187,188)" stroke="rgb(187,187,188)" stroke-width="1" opacity="0.7764705882352941" d="M 1418.5 1134 L 1419 1136.5 L 1418 1136.5 L 1418.5 1134 Z " /><path fill="rgb(187,187,188)" stroke="rgb(187,187,188)" stroke-width="1" opacity="0.7764705882352941" d="M 741.5 1137 L 742 1140.5 L 741 1140.5 L 741.5 1137 Z " /><path fill="rgb(187,187,188)" stroke="rgb(187,187,188)" stroke-width="1" opacity="0.7764705882352941" d="M 1419.5 1142 L 1420 1144.5 L 1419 1144.5 L 1419.5 1142 Z " /><path fill="rgb(187,187,188)" stroke="rgb(187,187,188)" stroke-width="1" opacity="0.7764705882352941" d="M 742.5 1145 L 743 1147.5 L 742 1147.5 L 742.5 1145 Z " /><path fill="rgb(187,187,188)" stroke="rgb(187,187,188)" stroke-width="1" opacity="0.7764705882352941" d="M 1420.5 1149 L 1421 1151.5 L 1420 1151.5 L 1420.5 1149 Z " /><path fill="rgb(187,187,188)" stroke="rgb(187,187,188)" stroke-width="1" opacity="0.7764705882352941" d="M 1421.5 1155 L 1422 1157.5 L 1421 1157.5 L 1421.5 1155 Z " /><path fill="rgb(187,187,188)" stroke="rgb(187,187,188)" stroke-width="1" opacity="0.7764705882352941" d="M 1448.5 1223 L 1449.5 1225 L 1448.5 1223 Z " /><path fill="rgb(187,187,188)" stroke="rgb(187,187,188)" stroke-width="1" opacity="0.7764705882352941" d="M 771.5 1224 L 772.5 1226 L 771.5 1224 Z " /><path fill="rgb(187,187,188)" stroke="rgb(187,187,188)" stroke-width="1" opacity="0.7764705882352941" d="M 1451.5 1227 L 1454.5 1231 L 1451.5 1227 Z " /><path fill="rgb(187,187,188)" stroke="rgb(187,187,188)" stroke-width="1" opacity="0.7764705882352941" d="M 775.5 1229 L 779.5 1234 L 775.5 1229 Z " /><path fill="rgb(187,187,188)" stroke="rgb(187,187,188)" stroke-width="1" opacity="0.7764705882352941" d="M 1085.5 1240 L 1084.5 1242 L 1085.5 1240 Z " /><path fill="rgb(187,187,188)" stroke="rgb(187,187,188)" stroke-width="1" opacity="0.7764705882352941" d="M 788.5 1242 L 792.5 1247 L 788.5 1242 Z " /><path fill="rgb(187,187,188)" stroke="rgb(187,187,188)" stroke-width="1" opacity="0.7764705882352941" d="M 1467.5 1243 L 1470.5 1247 L 1467.5 1243 Z " /><path fill="rgb(187,187,188)" stroke="rgb(187,187,188)" stroke-width="1" opacity="0.7764705882352941" d="M 796.5 1249 L 797.5 1251 L 796.5 1249 Z " /><path fill="rgb(187,187,188)" stroke="rgb(187,187,188)" stroke-width="1" opacity="0.7764705882352941" d="M 1474.5 1249 L 1475.5 1251 L 1474.5 1249 Z " /><path fill="rgb(187,187,188)" stroke="rgb(187,187,188)" stroke-width="1" opacity="0.7764705882352941" d="M 801.5 1253 L 802.5 1255 L 801.5 1253 Z " /><path fill="rgb(187,187,188)" stroke="rgb(187,187,188)" stroke-width="1" opacity="0.7764705882352941" d="M 1479.5 1253 L 1480.5 1255 L 1479.5 1253 Z " /><path fill="rgb(187,187,188)" stroke="rgb(187,187,188)" stroke-width="1" opacity="0.7764705882352941" d="M 1483.5 1256 L 1485.5 1259 L 1483.5 1256 Z " /><path fill="rgb(187,187,188)" stroke="rgb(187,187,188)" stroke-width="1" opacity="0.7764705882352941" d="M 806.5 1257 L 808.5 1260 L 806.5 1257 Z " /><path fill="rgb(187,187,188)" stroke="rgb(187,187,188)" stroke-width="1" opacity="0.7764705882352941" d="M 811.5 1261 L 814.5 1265 L 811.5 1261 Z " /><path fill="rgb(187,187,188)" stroke="rgb(187,187,188)" stroke-width="1" opacity="0.7764705882352941" d="M 1489.5 1261 L 1490.5 1263 L 1489.5 1261 Z " /><path fill="rgb(187,187,188)" stroke="rgb(187,187,188)" stroke-width="1" opacity="0.7764705882352941" d="M 1495.5 1266 L 1503.5 1275 L 1495.5 1266 Z " /><path fill="rgb(187,187,188)" stroke="rgb(187,187,188)" stroke-width="1" opacity="0.7764705882352941" d="M 820.5 1269 L 824.5 1274 L 820.5 1269 Z " /><path fill="rgb(187,187,188)" stroke="rgb(187,187,188)" stroke-width="1" opacity="0.7764705882352941" d="M 826.5 1276 L 828.5 1279 L 826.5 1276 Z " /><path fill="rgb(187,187,188)" stroke="rgb(187,187,188)" stroke-width="1" opacity="0.7764705882352941" d="M 1506.5 1278 L 1507.5 1280 L 1506.5 1278 Z " /><path fill="rgb(187,187,188)" stroke="rgb(187,187,188)" stroke-width="1" opacity="0.7764705882352941" d="M 1518.5 1306 L 1519 1308.5 L 1518 1308.5 L 1518.5 1306 Z " /><path fill="rgb(187,187,188)" stroke="rgb(187,187,188)" stroke-width="1" opacity="0.7764705882352941" d="M 840.5 1309 L 841 1311.5 L 840 1311.5 L 840.5 1309 Z " /><path fill="rgb(187,187,188)" stroke="rgb(187,187,188)" stroke-width="1" opacity="0.7764705882352941" d="M 1519.5 1315 L 1520 1319.5 L 1519 1319.5 L 1519.5 1315 Z " /><path fill="rgb(187,187,188)" stroke="rgb(187,187,188)" stroke-width="1" opacity="0.7764705882352941" d="M 841.5 1320 L 842 1327.5 L 841 1327.5 L 841.5 1320 Z " /><path fill="rgb(187,187,188)" stroke="rgb(187,187,188)" stroke-width="1" opacity="0.7764705882352941" d="M 1519.5 1328 L 1520 1331.5 L 1519 1331.5 L 1519.5 1328 Z " /><path fill="rgb(187,187,188)" stroke="rgb(187,187,188)" stroke-width="1" opacity="0.7764705882352941" d="M 1032.5 1341 L 1036 1349.5 L 1042 1355.5 L 1040.5 1356 Q 1033.5 1350.5 1032.5 1341 Z " /><path fill="rgb(187,187,188)" stroke="rgb(187,187,188)" stroke-width="1" opacity="0.7764705882352941" d="M 1514.5 1348 L 1513.5 1350 L 1514.5 1348 Z " /><path fill="rgb(187,187,188)" stroke="rgb(187,187,188)" stroke-width="1" opacity="0.7764705882352941" d="M 1512.5 1351 L 1511.5 1353 L 1512.5 1351 Z " /><path fill="rgb(187,187,188)" stroke="rgb(187,187,188)" stroke-width="1" opacity="0.7764705882352941" d="M 832.5 1353 L 831.5 1355 L 832.5 1353 Z " /><path fill="rgb(187,187,188)" stroke="rgb(187,187,188)" stroke-width="1" opacity="0.7764705882352941" d="M 1509.5 1355 L 1507.5 1358 L 1509.5 1355 Z " /><path fill="rgb(187,187,188)" stroke="rgb(187,187,188)" stroke-width="1" opacity="0.7764705882352941" d="M 827.5 1358 L 826.5 1360 L 827.5 1358 Z " /><path fill="rgb(187,187,188)" stroke="rgb(187,187,188)" stroke-width="1" opacity="0.7764705882352941" d="M 1504.5 1359 L 1503.5 1361 L 1504.5 1359 Z " /><path fill="rgb(187,187,188)" stroke="rgb(187,187,188)" stroke-width="1" opacity="0.7764705882352941" d="M 399.5 1372 L 408 1372.5 L 399.5 1373 L 399.5 1372 Z " /><path fill="rgb(187,187,188)" stroke="rgb(187,187,188)" stroke-width="1" opacity="0.7764705882352941" d="M 786.5 1372 L 790 1372.5 L 786.5 1373 L 786.5 1372 Z " /><path fill="rgb(187,187,188)" stroke="rgb(187,187,188)" stroke-width="1" opacity="0.7764705882352941" d="M 1464.5 1372 L 1468 1372.5 L 1464.5 1373 L 1464.5 1372 Z " /><path fill="rgb(187,187,188)" stroke="rgb(187,187,188)" stroke-width="1" opacity="0.7764705882352941" d="M 414.5 1373 L 418 1373.5 L 414.5 1374 L 414.5 1373 Z " /><path fill="rgb(187,187,188)" stroke="rgb(187,187,188)" stroke-width="1" opacity="0.7764705882352941" d="M 776.5 1373 L 780 1373.5 L 776.5 1374 L 776.5 1373 Z " /><path fill="rgb(187,187,188)" stroke="rgb(187,187,188)" stroke-width="1" opacity="0.7764705882352941" d="M 1454.5 1373 L 1458 1373.5 L 1454.5 1374 L 1454.5 1373 Z " /><path fill="rgb(187,187,188)" stroke="rgb(187,187,188)" stroke-width="1" opacity="0.7764705882352941" d="M 428.5 1374 L 764 1374.5 L 428.5 1375 L 428.5 1374 Z " /><path fill="rgb(187,187,188)" stroke="rgb(187,187,188)" stroke-width="1" opacity="0.7764705882352941" d="M 1107.5 1374 L 1442 1374.5 L 1107.5 1375 L 1107.5 1374 Z " /><path fill="rgb(217,217,217)" stroke="rgb(217,217,217)" stroke-width="1" opacity="0.996078431372549" d="M 453.5 336 L 717.5 336 L 718.5 337 L 771.5 337 L 773.5 338 L 775.5 337 L 777.5 338 L 779.5 338 Q 785.8 336.3 787.5 339 L 789.5 339 L 795.5 339 L 804.5 342 L 806.5 342 Q 825.7 345.8 836 358.5 L 842 369.5 L 845 380.5 L 845 399.5 L 845 401.5 L 844 408 Q 841.3 409.1 842 406.5 L 844 397.5 L 844 387.5 L 841 370.5 Q 837.3 360.2 829.5 354 Q 818.5 345.5 802.5 342 L 784.5 340 L 783.5 339 L 764.5 339 L 763.5 338 L 436.5 338 L 435.5 339 L 414.5 339 L 413.5 340 L 406.5 340 L 390.5 343 L 371.5 351 L 365 356.5 L 357 369.5 L 355 377.5 L 355 386.5 L 354 387.5 L 355 388.5 L 355 404.5 L 359 419.5 Q 366.8 437.2 381.5 448 L 415 475.5 Q 432.1 492.4 442 516.5 L 449 536.5 L 449 540.5 L 453 554.5 L 453 559.5 L 455 565.5 L 455 573.5 L 456 574.5 L 456 582.5 L 457 583.5 L 457 600.5 L 458 601.5 L 458 716.5 L 459 717.5 L 458 719.5 L 459 723.5 L 458 725.5 L 459 726.5 L 459 764.5 L 458 769.5 L 459 770.5 L 459 806.5 Q 456.3 808.3 458 814.5 L 459 815.5 L 459 847.5 L 458 848.5 L 458 883.5 L 459 884.5 L 459 904.5 L 459 906.5 L 459 1001.5 L 458 1002.5 L 458 1024.5 L 459 1025.5 L 459 1038.5 L 458 1039.5 L 458 1120.5 L 457 1121.5 L 457 1133.5 L 456 1134.5 L 456 1141.5 L 455 1142.5 L 453 1159.5 L 444 1190.5 L 436 1207.5 Q 426.7 1224.2 413.5 1237 L 380.5 1263 L 366 1276.5 L 355 1294.5 L 352 1306.5 L 351 1319.5 L 352 1320.5 L 352 1332.5 L 354 1341.5 Q 357.9 1351.6 365.5 1358 Q 379.5 1369.5 403 1371.5 L 398.5 1373 L 377.5 1367 L 365.5 1360 L 359 1353.5 L 354 1345.5 L 350 1329.5 L 350 1327.5 L 350 1309.5 Q 352.3 1308.3 351 1303.5 L 357 1287.5 L 366 1274 Q 368.7 1275.1 368 1272.5 L 371 1271 L 372.5 1268 L 379 1264 Q 377.9 1261.3 380.5 1262 L 401 1247 L 402.5 1244 L 410 1239 L 411.5 1236 L 415 1233.5 L 416.5 1231 Q 418.8 1231.8 418 1229.5 L 432 1211.5 L 441 1194.5 L 448 1174.5 L 448 1170.5 L 451 1162.5 L 452 1151.5 L 454 1147.5 L 453 1145.5 L 455 1139.5 L 455 1137.5 Q 453.5 1132 456 1130.5 L 455 1127.5 L 457 1116.5 L 456 1112.5 L 457 1110.5 L 456 1107.5 L 457 1106.5 L 457 616.5 L 456 614.5 L 456 612.5 L 457 609.5 L 456 608.5 L 456 592.5 L 455 590.5 L 455 588.5 L 455 578.5 L 454 577.5 L 454 575.5 Q 455.5 570 453 568.5 L 453 566.5 L 450 545.5 L 438 510.5 Q 427.7 489.3 411.5 474 L 379.5 448 L 366 434.5 L 358 420.5 L 355 411.5 L 354 400.5 L 353 399.5 L 353 383.5 L 353 381.5 Q 354.8 363.3 365.5 354 L 379.5 345 L 401.5 339 L 403.5 339 L 408.5 338 L 412.5 338 L 420.5 337 L 422.5 338 L 425.5 337 L 427.5 337 L 452.5 337 L 453.5 336 Z " /><path fill="rgb(217,217,217)" stroke="rgb(217,217,217)" stroke-width="1" opacity="0.996078431372549" d="M 1132.5 336 L 1421.5 336 L 1422.5 337 L 1450.5 337 L 1451.5 338 L 1454.5 337 L 1456.5 337 L 1464.5 339 L 1466.5 339 Q 1474.5 338 1478.5 341 L 1480.5 341 L 1493.5 344 L 1505.5 350 L 1514 357.5 Q 1520.5 365 1523 376.5 Q 1521.8 381.3 1524 382.5 L 1524 401.5 L 1522 406.5 Q 1524.5 408 1521 409.5 L 1520.5 411 L 1520 409.5 L 1522 404.5 L 1523 389.5 L 1522 388.5 L 1522 379.5 L 1520 370.5 Q 1516.7 360.8 1509.5 355 Q 1499.7 346.7 1485.5 343 L 1462.5 339 L 1442.5 339 L 1441.5 338 L 1113.5 338 L 1112.5 339 L 1092.5 339 L 1091.5 340 L 1084.5 340 L 1068.5 343 Q 1051.9 347.4 1042 358.5 L 1035 372.5 L 1033.5 397 L 1032 381.5 L 1033 378.5 L 1033 374.5 L 1036 365.5 L 1042 356 Q 1044.7 357.1 1044 354.5 L 1058.5 345 L 1087.5 338 L 1089.5 339 L 1099.5 337 L 1101.5 337 L 1105.5 338 L 1106.5 337 L 1131.5 337 L 1132.5 336 Z " /><path fill="rgb(217,217,217)" stroke="rgb(217,217,217)" stroke-width="1" opacity="0.996078431372549" d="M 1035.5 404 L 1036 406.5 L 1035 406.5 L 1035.5 404 Z " /><path fill="rgb(217,217,217)" stroke="rgb(217,217,217)" stroke-width="1" opacity="0.996078431372549" d="M 841.5 410 L 843 412.5 L 841 411.5 L 841.5 410 Z " /><path fill="rgb(217,217,217)" stroke="rgb(217,217,217)" stroke-width="1" opacity="0.996078431372549" d="M 1036.5 411 L 1037 413.5 L 1036 413.5 L 1036.5 411 Z " /><path fill="rgb(217,217,217)" stroke="rgb(217,217,217)" stroke-width="1" opacity="0.996078431372549" d="M 840.5 414 L 841.5 416 L 840.5 414 Z " /><path fill="rgb(217,217,217)" stroke="rgb(217,217,217)" stroke-width="1" opacity="0.996078431372549" d="M 1037.5 417 L 1038 418.5 L 1036 419.5 L 1037.5 417 Z " /><path fill="rgb(217,217,217)" stroke="rgb(217,217,217)" stroke-width="1" opacity="0.996078431372549" d="M 1039.5 422 Q 1045 435.5 1055.5 444 L 1094 476.5 L 1102 485.5 L 1102 488 L 1105 489.5 L 1105 492 L 1107 492 L 1107 495 Q 1109.7 493.9 1109 496.5 L 1123 524.5 L 1130 550.5 L 1131 561.5 L 1133 568.5 L 1134 587.5 L 1135 588.5 L 1135 611.5 L 1136 612.5 L 1136 724.5 L 1133 740.5 L 1126.5 750 L 1110.5 758 L 1096.5 761 L 1078.5 762 L 1077.5 763 L 1016.5 764 L 1015.5 765 L 847.5 765 L 846.5 764 L 828.5 764 L 825 762.5 L 838.5 762 L 839.5 763 L 1031.5 763 L 1032.5 762 L 1040.5 762 L 1043.5 763 L 1044.5 762 L 1052.5 762 L 1054.5 762 Q 1064 763.5 1069.5 761 L 1071.5 761 L 1073.5 762 L 1084.5 760 L 1086.5 760 L 1109.5 757 Q 1120.1 754.1 1127 747.5 L 1132 739.5 L 1134 730.5 L 1134 621.5 L 1135 617.5 L 1134 616.5 L 1134 596.5 L 1133 594.5 L 1133 592.5 L 1132 571.5 L 1129 557.5 L 1129 555.5 L 1125 535.5 L 1118 515.5 L 1110 499.5 L 1096 480 Q 1093.3 481.1 1094 478.5 L 1084 469.5 Q 1084.8 467.3 1082.5 468 L 1053 444 L 1040 427.5 L 1039.5 422 Z " /><path fill="rgb(217,217,217)" stroke="rgb(217,217,217)" stroke-width="1" opacity="0.996078431372549" d="M 820.5 764 L 823 764.5 L 820.5 765 L 820.5 764 Z " /><path fill="rgb(217,217,217)" stroke="rgb(217,217,217)" stroke-width="1" opacity="0.996078431372549" d="M 1134.5 969 L 1136 975.5 L 1136 1110.5 L 1135 1111.5 L 1135 1127.5 L 1134 1128.5 L 1134 1136.5 L 1133 1137.5 L 1133 1145.5 L 1132 1146.5 L 1131 1157.5 L 1122 1189.5 Q 1111.1 1218.6 1090.5 1238 L 1061.5 1261 L 1045 1276.5 Q 1030.5 1291 1030 1319.5 L 1031 1320.5 L 1031 1332.5 L 1034 1342.5 L 1033 1342.5 L 1031 1339.5 L 1031 1334.5 L 1029 1327.5 L 1029 1325.5 L 1029 1312.5 L 1030 1310.5 L 1030 1308.5 L 1031 1299.5 L 1038 1283.5 L 1053.5 1266 L 1086 1240.5 L 1087.5 1238 L 1093 1233.5 Q 1109.7 1217.2 1119 1193.5 L 1129 1160.5 L 1132 1136.5 L 1133 1135.5 L 1133 1133.5 L 1133 1125.5 L 1134 1124.5 L 1133 1122.5 L 1134 1121.5 L 1134 1105.5 L 1135 1104.5 L 1134 1103.5 L 1134 1015.5 L 1135 1014.5 L 1135 1006.5 L 1134 1005.5 L 1134.5 969 Z " /><path fill="rgb(217,217,217)" stroke="rgb(217,217,217)" stroke-width="1" opacity="0.996078431372549" d="M 812.5 1263 L 813.5 1265 L 812.5 1263 Z " /><path fill="rgb(217,217,217)" stroke="rgb(217,217,217)" stroke-width="1" opacity="0.996078431372549" d="M 1035.5 1346 L 1040 1352.5 L 1036 1349.5 L 1035.5 1346 Z " /><path fill="rgb(217,217,217)" stroke="rgb(217,217,217)" stroke-width="1" opacity="0.996078431372549" d="M 1041.5 1356 L 1057.5 1366 L 1070.5 1370 L 1080.5 1372 L 1088.5 1372 L 1089.5 1373 L 1101.5 1373 L 1107 1374.5 L 1096.5 1375 L 1093.5 1374 L 1084.5 1374 L 1059.5 1368 L 1048.5 1363 L 1041.5 1356 Z " /><path fill="rgb(217,217,217)" stroke="rgb(217,217,217)" stroke-width="1" opacity="0.996078431372549" d="M 428.5 1373 L 437 1373.5 L 428.5 1374 L 428.5 1373 Z " /><path fill="rgb(217,217,217)" stroke="rgb(217,217,217)" stroke-width="1" opacity="0.996078431372549" d="M 1113.5 1373 L 1116 1373.5 L 1113.5 1374 L 1113.5 1373 Z " /><path fill="rgb(217,217,217)" stroke="rgb(217,217,217)" stroke-width="1" opacity="1" d="M 436.5 338 L 763.5 338 L 764.5 339 L 783.5 339 L 810.5 344 L 825.5 351 L 835 359.5 L 842 373.5 L 843 386.5 L 844 387.5 L 844 397.5 L 841 413.5 L 838 418.5 L 839 420.5 Q 832.5 434.5 821.5 444 Q 796.6 461.1 776 482.5 Q 762.3 497.8 754 518.5 L 748 535.5 L 742 562.5 L 741 577.5 L 740 578.5 L 740 588.5 L 739 589.5 L 739 729.5 L 743 743.5 L 750.5 752 L 760.5 757 L 773.5 760 L 785.5 761 L 786.5 762 L 818.5 763 L 822.5 765 L 823.5 764 L 846.5 764 L 847.5 765 L 1015.5 765 L 1016.5 764 L 1058.5 764 L 1059.5 763 L 1077.5 763 L 1078.5 762 L 1096.5 761 L 1116.5 756 L 1128 748.5 L 1133 740.5 L 1136 724.5 L 1136 612.5 L 1135 611.5 L 1135 588.5 L 1134 587.5 L 1133 568.5 L 1132 567.5 L 1130 550.5 L 1123 524.5 Q 1111.7 491.8 1088.5 471 L 1051 439.5 Q 1041.6 430.4 1037 416.5 L 1036 404.5 L 1034 400.5 L 1034 377.5 Q 1036.4 361.9 1046.5 354 Q 1055.5 346.5 1068.5 343 L 1084.5 340 L 1091.5 340 L 1092.5 339 L 1112.5 339 L 1113.5 338 L 1441.5 338 L 1442.5 339 L 1462.5 339 L 1485.5 343 Q 1503.4 347.6 1514 359.5 L 1520 370.5 L 1522 379.5 L 1523 395.5 L 1522 396.5 L 1522 404.5 L 1516 424.5 Q 1508.4 437.9 1496.5 447 L 1466.5 470 L 1452 484.5 L 1436 508.5 L 1427 530.5 L 1420 559.5 L 1418 580.5 L 1417 581.5 L 1417 593.5 L 1416 594.5 L 1416 1107.5 L 1417 1108.5 L 1417 1126.5 L 1418 1127.5 L 1418 1136.5 L 1419 1137.5 L 1421 1157.5 L 1430 1190.5 Q 1443.6 1225.4 1470.5 1247 Q 1490.4 1260.1 1506 1277.5 Q 1513.5 1286.5 1517 1299.5 L 1519 1309.5 L 1520 1327.5 L 1516 1345.5 L 1505.5 1359 L 1488.5 1368 L 1471.5 1372 L 1454.5 1373 L 1453.5 1374 L 1116.5 1374 L 1113.5 1373 L 1112.5 1374 L 1102.5 1374 L 1101.5 1373 L 1080.5 1372 L 1063.5 1368 Q 1048.7 1363.8 1040 1353.5 L 1032 1337.5 L 1030 1314.5 L 1033 1297.5 L 1039 1284.5 L 1054.5 1267 Q 1075.9 1252.4 1094 1234.5 Q 1107.7 1220.2 1117 1201.5 L 1127 1174.5 L 1133 1145.5 L 1133 1137.5 L 1135 1127.5 L 1135 1111.5 L 1136 1110.5 L 1136 942.5 L 1135 941.5 L 1135 920.5 L 1133 910.5 Q 1129.8 901.8 1122.5 897 L 1102.5 890 L 1097.5 890 L 1090.5 888 L 1081.5 888 L 1080.5 887 L 1063.5 887 L 1062.5 886 L 1037.5 886 L 1036.5 885 L 841.5 885 L 840.5 886 L 792.5 887 L 791.5 888 L 770.5 890 Q 754.5 893 745 902.5 L 742 907.5 L 739 918.5 L 739 1116.5 L 740 1117.5 L 740 1130.5 L 741 1131.5 L 741 1140.5 L 742 1141.5 L 744 1159.5 L 754 1194.5 Q 767.5 1226.5 792.5 1247 L 812 1262.5 L 813.5 1265 L 815.5 1265 L 826 1275.5 Q 834.9 1285.6 839 1300.5 L 840 1311.5 L 841 1312.5 L 841 1332.5 L 838 1344.5 L 828.5 1358 Q 821 1364.5 810.5 1368 L 793.5 1372 L 776.5 1373 L 775.5 1374 L 437.5 1374 L 436.5 1373 L 428.5 1373 L 427.5 1374 L 418.5 1374 L 417.5 1373 L 408.5 1373 L 402.5 1371 L 397.5 1371 L 381.5 1367 Q 368.8 1362.7 361 1353.5 L 354 1341.5 L 352 1332.5 L 351 1314.5 L 355 1294.5 Q 361.8 1279.3 373.5 1269 L 398.5 1250 L 416 1234.5 Q 431.3 1218.8 441 1197.5 L 449 1175.5 L 453 1159.5 L 453 1154.5 L 456 1141.5 L 456 1134.5 L 457 1133.5 L 457 1121.5 L 458 1120.5 L 458 1039.5 L 459 1038.5 L 459 1025.5 L 458 1024.5 L 458 1002.5 L 459 1001.5 L 459 906.5 L 459 904.5 L 458 848.5 L 459 847.5 L 459 815.5 Q 456.3 813.8 458 807.5 L 459 806.5 L 459 770.5 L 458 765.5 L 459 764.5 L 459 726.5 L 458 724.5 L 459 720.5 L 458 718.5 L 458 716.5 L 458 601.5 L 457 600.5 L 457 583.5 L 456 582.5 L 456 574.5 L 455 573.5 L 455 565.5 L 453 559.5 L 453 554.5 L 449 540.5 L 449 536.5 L 442 516.5 Q 431.3 490.7 412.5 473 L 381.5 448 L 367 433.5 L 357 413.5 L 355 404.5 L 355 388.5 L 354 387.5 L 355 386.5 L 355 377.5 L 357 369.5 Q 360.3 360.8 366.5 355 Q 377.6 345.6 394.5 342 L 413.5 340 L 414.5 339 L 435.5 339 L 436.5 338 Z " /><path fill="rgb(0,0,0)" stroke="rgb(0,0,0)" stroke-width="1" opacity="0" d="M 0 0 L 2000 0 L 2000 2000 L 0 2000 L 0 0 Z M 1013 211 L 1008 213 Q 1002 216 1000 224 L 1000 231 L 1003 237 L 1013 243 L 1024 243 L 1026 242 Q 1032 238 1034 230 Q 1034 223 1031 219 Q 1026 210 1013 211 Z M 1212 211 L 1208 213 L 1201 222 Q 1199 231 1203 236 L 1212 242 Q 1221 244 1226 240 L 1232 232 Q 1234 222 1230 218 Q 1226 209 1212 211 Z M 1412 211 L 1407 214 L 1401 223 L 1401 231 L 1404 237 L 1413 242 Q 1422 244 1426 240 Q 1432 237 1433 229 L 1431 219 L 1422 211 L 1412 211 Z M 1613 211 L 1609 213 L 1602 222 Q 1600 231 1604 236 L 1613 242 Q 1622 244 1627 240 L 1633 232 Q 1634 222 1631 218 Q 1627 209 1613 211 Z M 1815 211 L 1810 213 L 1802 223 Q 1801 231 1804 236 Q 1808 242 1817 243 L 1826 241 Q 1832 237 1834 229 Q 1834 221 1830 217 L 1822 211 L 1815 211 Z M 212 212 L 208 214 Q 202 217 200 225 L 200 232 L 203 238 L 211 243 Q 222 245 227 240 L 232 231 Q 233 223 230 220 L 221 212 L 212 212 Z M 412 212 L 408 214 L 401 223 Q 400 233 404 238 L 413 243 Q 422 244 427 240 L 432 233 Q 434 223 430 219 Q 426 210 412 212 Z M 612 212 L 607 215 L 601 224 Q 600 232 603 236 Q 606 241 614 243 Q 622 244 626 241 Q 631 237 633 230 L 631 220 L 622 212 L 612 212 Z M 813 212 L 809 214 L 802 223 Q 800 233 805 238 L 814 243 L 822 243 L 829 239 L 833 232 Q 834 223 831 219 Q 827 210 813 212 Z M 454 336 L 453 337 L 420 337 L 419 338 L 409 338 L 392 341 Q 376 345 366 354 L 357 366 L 353 381 L 353 400 L 354 401 L 355 412 Q 359 425 366 435 L 381 449 L 412 474 L 432 500 L 446 532 L 454 570 L 455 592 L 456 593 L 456 616 L 457 617 L 457 1107 L 456 1108 L 456 1127 L 455 1128 L 455 1138 L 450 1167 L 442 1192 Q 432 1216 415 1234 L 398 1249 L 373 1268 Q 355 1282 350 1310 L 350 1330 Q 352 1331 351 1336 Q 353 1347 359 1354 Q 366 1362 378 1367 L 399 1373 L 404 1373 L 409 1378 L 416 1380 L 423 1379 L 428 1375 L 436 1375 L 432 1392 L 433 1417 Q 435 1428 442 1436 Q 452 1447 470 1451 L 485 1454 L 506 1455 L 507 1456 L 851 1456 L 852 1455 L 873 1454 L 891 1450 Q 902 1446 911 1439 L 920 1425 L 923 1411 L 923 1400 L 922 1399 L 922 1390 L 920 1380 Q 915 1364 905 1354 L 870 1324 Q 846 1303 834 1272 L 827 1248 L 824 1232 L 823 1218 L 822 1217 L 822 1206 L 821 1205 L 821 1189 L 827 1187 L 833 1179 Q 835 1169 831 1165 Q 828 1159 821 1158 L 821 1025 L 820 1024 L 820 1006 L 827 1002 L 833 994 L 833 980 L 838 976 L 847 973 L 862 970 L 884 969 L 885 968 L 908 968 L 909 967 L 1011 968 L 1008 969 Q 1001 973 999 981 L 999 988 L 1004 998 Q 1008 1004 1017 1005 L 1026 1003 Q 1032 999 1034 991 Q 1036 979 1031 974 Q 1028 969 1023 968 L 1023 967 L 1126 967 L 1127 968 L 1134 968 L 1134 1006 L 1135 1007 L 1135 1015 L 1134 1016 L 1134 1122 L 1133 1123 L 1133 1134 L 1132 1135 L 1132 1143 L 1129 1156 L 1129 1161 L 1125 1177 L 1116 1201 Q 1107 1219 1093 1234 Q 1075 1252 1054 1266 Q 1034 1281 1029 1310 L 1029 1328 L 1030 1329 L 1031 1340 L 1038 1354 Q 1048 1366 1066 1370 L 1085 1374 L 1115 1375 L 1111 1391 L 1111 1411 Q 1114 1412 1112 1418 Q 1114 1428 1120 1435 Q 1129 1445 1145 1450 L 1163 1454 L 1184 1455 L 1185 1456 L 1528 1456 L 1529 1455 L 1551 1454 L 1569 1450 L 1587 1441 Q 1598 1432 1601 1415 L 1601 1395 L 1598 1379 Q 1594 1365 1585 1356 Q 1568 1339 1549 1325 Q 1526 1306 1514 1278 L 1504 1246 L 1501 1223 L 1500 1222 L 1500 1214 L 1499 1213 L 1499 1200 L 1498 1199 L 1498 693 L 1497 692 L 1498 691 L 1498 671 L 1499 670 L 1500 652 L 1506 621 Q 1511 601 1520 586 L 1534 566 L 1549 551 L 1579 528 L 1596 509 L 1602 495 L 1604 486 L 1604 477 L 1605 476 L 1603 456 L 1596 441 L 1584 430 L 1566 423 L 1550 420 L 1523 419 L 1520 418 L 1524 402 L 1524 383 Q 1522 381 1523 377 Q 1521 366 1515 359 L 1506 350 Q 1495 343 1480 340 L 1459 338 L 1458 337 L 1423 337 L 1422 336 L 1133 336 L 1132 337 L 1099 337 L 1098 338 L 1088 338 L 1071 341 L 1059 345 L 1046 353 L 1037 364 L 1032 380 L 1032 400 L 1034 406 L 1034 408 L 1031 403 L 1022 396 L 1011 396 L 1004 400 L 1000 408 L 1000 415 L 1004 423 L 1015 428 Q 1023 429 1027 426 Q 1034 422 1035 411 Q 1035 421 1040 428 L 1053 444 L 1088 472 Q 1111 493 1122 526 L 1129 553 L 1131 571 L 1132 572 L 1132 581 L 1133 582 L 1133 596 L 1134 597 L 1134 731 L 1132 740 L 1127 748 L 1113 756 L 1100 759 L 1083 760 L 1082 761 L 1068 761 L 1067 762 L 1033 762 L 1032 763 L 840 763 L 839 762 Q 827 761 821 763 L 821 701 L 820 700 L 821 666 L 822 665 L 824 642 L 828 623 L 834 604 L 844 583 L 857 565 L 871 551 L 904 525 Q 914 516 920 504 L 925 488 L 925 480 L 926 479 L 926 469 L 925 468 L 924 455 L 918 442 Q 907 428 888 423 L 872 420 L 845 419 L 841 418 L 845 403 L 845 381 L 842 370 L 836 359 Q 829 350 818 345 L 806 341 L 789 338 L 780 338 L 779 337 L 719 337 L 718 336 L 454 336 Z M 214 396 L 207 399 L 200 409 Q 199 417 202 421 Q 205 426 213 428 Q 221 429 225 426 Q 230 422 232 416 Q 233 407 229 403 Q 225 396 214 396 Z M 1613 396 L 1609 398 L 1602 407 Q 1600 416 1604 421 L 1613 427 Q 1622 429 1627 425 L 1633 417 Q 1635 407 1631 403 Q 1627 394 1613 396 Z M 1814 396 L 1810 398 Q 1804 401 1802 409 Q 1801 416 1804 420 Q 1807 425 1814 427 L 1826 426 Q 1832 422 1834 415 Q 1835 407 1832 404 Q 1828 394 1814 396 Z M 1012 586 L 1008 588 Q 1002 591 1000 599 L 1000 606 L 1003 612 L 1013 618 Q 1021 619 1026 617 Q 1032 613 1034 606 Q 1035 598 1032 595 Q 1028 589 1021 586 L 1012 586 Z M 1614 586 L 1608 589 L 1602 597 Q 1600 606 1604 611 L 1610 616 L 1617 618 L 1627 615 L 1633 607 Q 1635 596 1630 592 L 1622 586 L 1614 586 Z M 1814 586 L 1810 588 Q 1804 591 1802 599 Q 1801 609 1806 613 Q 1810 617 1817 618 Q 1825 618 1829 614 L 1834 606 Q 1835 598 1832 594 L 1823 586 L 1814 586 Z M 212 587 L 208 589 Q 202 592 200 600 L 200 606 L 204 614 L 212 618 Q 221 620 225 616 Q 230 613 232 606 Q 233 598 230 595 L 221 587 L 212 587 Z M 413 587 L 407 590 L 401 598 Q 399 608 404 613 L 412 618 Q 421 620 426 616 L 432 608 Q 434 597 429 593 L 421 587 L 413 587 Z M 1614 771 L 1608 774 L 1602 782 Q 1600 791 1604 796 L 1610 801 L 1617 803 L 1627 800 L 1633 792 Q 1635 782 1631 778 Q 1627 770 1614 771 Z M 1814 771 L 1810 773 Q 1804 776 1802 784 Q 1801 793 1806 798 Q 1810 802 1817 803 Q 1823 803 1828 800 L 1834 791 Q 1835 783 1832 779 L 1823 771 L 1814 771 Z M 212 772 L 208 774 Q 201 777 200 786 Q 199 793 203 797 L 212 803 Q 222 805 227 800 L 232 792 L 232 784 L 229 778 L 222 772 L 212 772 Z M 412 772 L 408 774 L 401 783 Q 399 793 404 798 L 412 803 Q 421 805 426 801 L 432 793 Q 434 783 430 779 Q 426 770 412 772 Z M 214 967 L 209 969 Q 202 973 200 982 Q 198 993 203 999 Q 207 1004 215 1005 Q 223 1005 227 1001 L 232 992 Q 234 980 230 975 Q 226 967 214 967 Z M 414 967 L 408 970 L 401 979 L 401 994 L 403 998 L 412 1004 Q 421 1006 426 1002 L 432 994 L 432 979 L 431 976 Q 427 966 414 967 Z M 1613 967 L 1609 969 L 1601 979 Q 1599 988 1603 993 L 1609 998 L 1616 1000 L 1626 997 L 1633 988 Q 1635 978 1631 974 Q 1627 965 1613 967 Z M 1814 967 L 1806 971 L 1801 980 Q 1800 988 1803 993 Q 1806 999 1815 1000 L 1820 1000 L 1827 997 Q 1832 993 1834 986 Q 1835 978 1832 975 Q 1828 965 1814 967 Z M 1011 1153 L 1007 1155 Q 1001 1158 999 1166 L 999 1173 L 1004 1182 Q 1007 1187 1014 1189 L 1026 1188 Q 1032 1184 1034 1177 L 1034 1171 L 1029 1161 L 1020 1153 L 1011 1153 Z M 1613 1153 L 1607 1156 L 1601 1164 Q 1599 1173 1603 1178 L 1611 1184 Q 1621 1186 1626 1182 L 1632 1174 Q 1634 1163 1629 1159 L 1621 1153 L 1613 1153 Z M 1813 1153 L 1809 1155 Q 1803 1158 1801 1166 Q 1800 1176 1805 1180 L 1812 1184 Q 1823 1186 1828 1181 L 1833 1173 Q 1834 1165 1831 1161 L 1822 1153 L 1813 1153 Z M 211 1158 L 204 1162 L 200 1171 L 200 1177 L 204 1185 L 212 1189 Q 221 1191 225 1187 Q 230 1184 232 1177 L 232 1171 L 228 1162 L 222 1158 L 211 1158 Z M 412 1158 L 408 1160 L 401 1169 Q 399 1178 403 1183 L 412 1189 Q 421 1191 426 1187 L 432 1179 Q 434 1169 430 1165 Q 426 1156 412 1158 Z M 1012 1343 L 1007 1345 Q 1001 1348 999 1356 L 1000 1366 L 1006 1375 Q 1010 1379 1017 1380 Q 1023 1380 1028 1377 L 1034 1368 L 1034 1361 L 1029 1351 Q 1025 1342 1012 1343 Z M 1614 1343 L 1605 1347 L 1601 1354 L 1601 1364 L 1605 1371 L 1614 1375 Q 1621 1376 1625 1373 L 1632 1364 Q 1634 1355 1630 1351 Q 1626 1342 1614 1343 Z M 1814 1343 L 1808 1346 L 1801 1356 Q 1800 1364 1804 1369 Q 1807 1374 1815 1375 L 1824 1374 L 1827 1372 Q 1831 1369 1833 1363 Q 1834 1353 1830 1350 Q 1826 1342 1814 1343 Z M 212 1348 L 208 1350 Q 202 1353 200 1361 L 200 1368 L 203 1374 Q 207 1379 215 1380 Q 223 1380 227 1376 L 232 1367 Q 233 1359 230 1356 L 221 1348 L 212 1348 Z M 1012 1528 L 1006 1531 Q 1001 1535 999 1542 L 1000 1550 L 1006 1560 Q 1010 1564 1017 1565 Q 1023 1565 1028 1562 L 1034 1553 L 1034 1546 L 1029 1536 Q 1025 1527 1012 1528 Z M 1213 1528 L 1208 1530 Q 1202 1533 1200 1540 Q 1199 1549 1202 1553 Q 1205 1558 1213 1560 Q 1220 1561 1224 1558 Q 1229 1555 1231 1549 Q 1233 1538 1228 1534 L 1220 1528 L 1213 1528 Z M 1413 1528 L 1407 1531 Q 1402 1535 1400 1542 L 1400 1547 L 1403 1554 Q 1406 1559 1414 1560 L 1419 1560 L 1425 1558 Q 1430 1555 1432 1548 Q 1433 1540 1430 1536 Q 1426 1527 1413 1528 Z M 1614 1528 L 1605 1532 L 1601 1539 L 1601 1549 L 1605 1556 L 1614 1560 L 1619 1560 L 1625 1558 L 1632 1549 Q 1634 1538 1629 1534 Q 1624 1528 1614 1528 Z M 1814 1528 L 1808 1531 L 1801 1541 Q 1800 1549 1804 1554 Q 1807 1559 1815 1560 L 1824 1559 L 1827 1557 Q 1831 1554 1833 1548 Q 1834 1538 1830 1535 Q 1826 1527 1814 1528 Z M 213 1533 L 208 1535 Q 202 1539 200 1547 L 202 1557 L 209 1563 L 216 1565 L 226 1562 L 232 1553 Q 233 1545 230 1541 L 221 1533 L 213 1533 Z M 413 1533 L 407 1536 L 401 1544 Q 399 1553 403 1558 L 411 1564 L 416 1565 L 423 1564 L 426 1562 L 432 1554 Q 434 1544 430 1540 Q 426 1532 413 1533 Z M 613 1533 L 609 1535 Q 602 1538 601 1547 L 601 1552 L 605 1560 L 612 1564 L 617 1565 L 627 1562 L 633 1553 Q 634 1545 631 1541 L 622 1533 L 613 1533 Z M 814 1533 L 808 1536 L 802 1544 Q 800 1553 804 1558 L 810 1563 L 817 1565 L 827 1562 L 833 1554 Q 835 1544 831 1540 Q 827 1532 814 1533 Z M 1012 1724 L 1007 1726 Q 1001 1730 999 1738 L 1000 1746 L 1004 1753 Q 1007 1758 1014 1760 L 1026 1759 Q 1032 1755 1034 1748 L 1034 1742 L 1029 1732 L 1020 1724 L 1012 1724 Z M 1212 1724 L 1206 1727 L 1200 1735 Q 1198 1744 1202 1749 L 1210 1755 L 1222 1755 L 1225 1753 L 1231 1745 Q 1233 1735 1229 1731 Q 1225 1723 1212 1724 Z M 1412 1724 L 1408 1726 Q 1401 1729 1400 1738 L 1400 1743 L 1404 1751 L 1411 1755 Q 1421 1757 1426 1753 L 1432 1744 Q 1433 1736 1430 1732 L 1421 1724 L 1412 1724 Z M 1613 1724 L 1607 1727 L 1601 1735 Q 1599 1744 1603 1749 L 1611 1755 L 1623 1755 L 1626 1753 L 1632 1745 Q 1634 1735 1630 1731 Q 1626 1723 1613 1724 Z M 1813 1724 L 1809 1726 Q 1803 1729 1801 1737 Q 1800 1745 1804 1750 L 1812 1755 Q 1822 1757 1827 1753 L 1833 1744 Q 1834 1736 1831 1732 L 1822 1724 L 1813 1724 Z M 212 1729 L 208 1731 Q 201 1734 200 1743 Q 199 1750 203 1754 L 212 1760 Q 222 1762 227 1757 L 232 1749 L 232 1741 L 229 1735 L 222 1729 L 212 1729 Z M 412 1729 L 408 1731 L 401 1740 Q 399 1750 404 1755 L 412 1760 Q 421 1762 426 1758 L 432 1750 Q 434 1740 430 1736 Q 426 1727 412 1729 Z M 613 1729 L 609 1731 Q 603 1734 601 1742 L 601 1747 L 603 1753 L 613 1760 L 622 1760 L 629 1756 L 633 1749 L 633 1742 L 629 1733 L 623 1729 L 613 1729 Z M 813 1729 L 809 1731 L 802 1740 Q 800 1749 804 1754 L 813 1760 Q 822 1762 827 1758 L 833 1750 Q 835 1740 831 1736 Q 827 1727 813 1729 Z " /><path fill="rgb(0,0,0)" stroke="rgb(0,0,0)" stroke-width="1" opacity="0.996078431372549" d="M 1012.5 211 Q 1026.2 210.3 1031 218.5 Q 1034 222.5 1034 229.5 Q 1032.4 238.4 1025.5 242 L 1023.5 243 L 1012.5 243 L 1003 236.5 L 1000 230.5 L 1000 223.5 Q 1001.8 216.3 1007.5 213 L 1012.5 211 Z " /><path fill="rgb(0,0,0)" stroke="rgb(0,0,0)" stroke-width="1" opacity="0.996078431372549" d="M 1211.5 211 Q 1226.2 208.8 1230 217.5 Q 1233.7 221.8 1232 231.5 L 1225.5 240 Q 1221.2 243.7 1211.5 242 L 1203 235.5 Q 1199.3 231.2 1201 221.5 L 1207.5 213 L 1211.5 211 Z " /><path fill="rgb(0,0,0)" stroke="rgb(0,0,0)" stroke-width="1" opacity="0.996078431372549" d="M 1411.5 211 L 1421.5 211 L 1431 218.5 L 1433 228.5 Q 1431.6 236.6 1425.5 240 Q 1421.5 243.5 1412.5 242 L 1404 236.5 L 1401 230.5 L 1401 222.5 L 1406.5 214 L 1411.5 211 Z " /><path fill="rgb(0,0,0)" stroke="rgb(0,0,0)" stroke-width="1" opacity="0.996078431372549" d="M 1612.5 211 Q 1627.2 208.8 1631 217.5 Q 1634.3 222.2 1633 231.5 L 1626.5 240 Q 1622.2 243.7 1612.5 242 L 1604 235.5 Q 1600.3 231.2 1602 221.5 L 1608.5 213 L 1612.5 211 Z " /><path fill="rgb(0,0,0)" stroke="rgb(0,0,0)" stroke-width="1" opacity="0.996078431372549" d="M 1814.5 211 L 1821.5 211 L 1830 216.5 Q 1834 220.5 1834 228.5 Q 1832.4 237.4 1825.5 241 L 1816.5 243 Q 1808 241.5 1804 235.5 Q 1800.9 231.1 1802 222.5 L 1809.5 213 L 1814.5 211 Z " /><path fill="rgb(0,0,0)" stroke="rgb(0,0,0)" stroke-width="1" opacity="0.996078431372549" d="M 211.5 212 L 220.5 212 L 230 219.5 Q 232.9 223.1 232 230.5 L 226.5 240 Q 222.1 245.1 210.5 243 L 203 237.5 L 200 231.5 L 200 224.5 Q 201.8 217.3 207.5 214 L 211.5 212 Z " /><path fill="rgb(0,0,0)" stroke="rgb(0,0,0)" stroke-width="1" opacity="0.996078431372549" d="M 411.5 212 Q 426.2 209.8 430 218.5 Q 433.7 222.8 432 232.5 L 426.5 240 Q 422.3 244.3 412.5 243 L 404 237.5 Q 399.5 233 401 222.5 L 407.5 214 L 411.5 212 Z " /><path fill="rgb(0,0,0)" stroke="rgb(0,0,0)" stroke-width="1" opacity="0.996078431372549" d="M 611.5 212 L 621.5 212 L 631 219.5 L 633 229.5 Q 631.1 237.1 625.5 241 Q 621.5 244 613.5 243 Q 606.3 241.2 603 235.5 Q 600 231.5 601 223.5 L 606.5 215 L 611.5 212 Z " /><path fill="rgb(0,0,0)" stroke="rgb(0,0,0)" stroke-width="1" opacity="0.996078431372549" d="M 812.5 212 Q 827.2 209.8 831 218.5 Q 834.1 222.9 833 231.5 L 829 239 L 821.5 243 L 813.5 243 L 805 237.5 Q 800.1 233.4 802 222.5 L 808.5 214 L 812.5 212 Z " /><path fill="rgb(0,0,0)" stroke="rgb(0,0,0)" stroke-width="1" opacity="0.996078431372549" d="M 213.5 396 Q 224.7 395.8 229 402.5 Q 232.9 406.6 232 415.5 Q 229.8 422.3 224.5 426 Q 220.5 429 212.5 428 Q 205.3 426.2 202 420.5 Q 199 416.5 200 408.5 L 206.5 399 L 213.5 396 Z " /><path fill="rgb(0,0,0)" stroke="rgb(0,0,0)" stroke-width="1" opacity="0.996078431372549" d="M 1010.5 396 L 1021.5 396 L 1031 402.5 Q 1035.2 406.3 1034 415.5 Q 1032.2 422.7 1026.5 426 Q 1022.5 429 1014.5 428 L 1004 423 L 1000 414.5 L 1000 407.5 L 1004 400 L 1010.5 396 Z " /><path fill="rgb(0,0,0)" stroke="rgb(0,0,0)" stroke-width="1" opacity="0.996078431372549" d="M 1612.5 396 Q 1627.2 393.8 1631 402.5 Q 1634.7 406.8 1633 416.5 L 1626.5 425 Q 1622.2 428.7 1612.5 427 L 1604 420.5 Q 1600.3 416.2 1602 406.5 L 1608.5 398 L 1612.5 396 Z " /><path fill="rgb(0,0,0)" stroke="rgb(0,0,0)" stroke-width="1" opacity="0.996078431372549" d="M 1813.5 396 Q 1828.3 394.3 1832 403.5 Q 1834.9 407.1 1834 414.5 Q 1831.9 422.4 1825.5 426 L 1813.5 427 Q 1806.6 425.4 1804 419.5 Q 1801.1 415.9 1802 408.5 Q 1803.8 401.3 1809.5 398 L 1813.5 396 Z " /><path fill="rgb(0,0,0)" stroke="rgb(0,0,0)" stroke-width="1" opacity="0.996078431372549" d="M 841.5 418 L 844.5 419 L 862.5 419 L 863.5 420 L 871.5 420 L 887.5 423 Q 907.2 427.8 918 441.5 L 924 454.5 L 925 467.5 L 926 468.5 L 926 478.5 L 925 479.5 L 925 487.5 L 920 503.5 Q 913.7 516.2 903.5 525 L 870.5 551 L 857 564.5 L 844 582.5 L 834 603.5 L 828 622.5 L 824 641.5 L 822 664.5 L 821 665.5 L 820 699.5 L 821 700.5 L 821 761.5 L 819.5 763 L 808.5 763 L 807.5 762 L 782.5 761 L 765.5 758 L 747 749 L 741 737.5 L 740 724.5 L 739 723.5 L 739 596.5 L 740 595.5 L 740 582.5 L 741 581.5 L 741 572.5 L 742 571.5 L 743 559.5 L 747 540.5 L 754 519.5 Q 767.2 487.2 792.5 467 L 817.5 448 L 831 434.5 L 841.5 418 Z " /><path fill="rgb(0,0,0)" stroke="rgb(0,0,0)" stroke-width="1" opacity="0.996078431372549" d="M 1520.5 418 L 1522.5 419 L 1540.5 419 L 1541.5 420 L 1549.5 420 L 1565.5 423 L 1583.5 430 L 1596 440.5 L 1603 455.5 L 1605 475.5 L 1604 476.5 L 1604 485.5 L 1602 494.5 L 1596 508.5 L 1578.5 528 L 1548.5 551 L 1534 565.5 L 1520 585.5 Q 1511.3 601.3 1506 620.5 L 1500 651.5 L 1499 669.5 L 1498 670.5 L 1498 690.5 L 1497 691.5 L 1498 692.5 L 1498 1198.5 L 1499 1199.5 L 1499 1212.5 L 1500 1213.5 L 1500 1221.5 L 1501 1222.5 L 1504 1245.5 L 1514 1277.5 Q 1526.4 1306.1 1548.5 1325 Q 1568.3 1338.7 1585 1355.5 Q 1593.8 1364.7 1598 1378.5 L 1601 1394.5 L 1601 1414.5 Q 1598.1 1432.1 1586.5 1441 L 1568.5 1450 L 1550.5 1454 L 1528.5 1455 L 1527.5 1456 L 1184.5 1456 L 1183.5 1455 L 1162.5 1454 L 1144.5 1450 Q 1129 1445.5 1120 1434.5 Q 1114.3 1427.7 1112 1417.5 Q 1113.5 1412 1111 1410.5 L 1111 1390.5 L 1115 1375 L 1441.5 1375 L 1442.5 1374 L 1467.5 1373 L 1486.5 1369 Q 1500.9 1364.9 1510 1355.5 Q 1516.5 1348.5 1519 1337.5 L 1520 1315.5 L 1516 1294.5 Q 1509 1277 1495.5 1266 Q 1473.4 1250.6 1455 1231.5 Q 1438.1 1212.9 1429 1186.5 L 1422 1160.5 L 1420 1142.5 L 1419 1141.5 L 1419 1134.5 L 1418 1133.5 L 1418 1121.5 L 1417 1120.5 L 1417 615.5 L 1416 614.5 L 1416 603.5 L 1417 602.5 L 1417 586.5 L 1418 585.5 L 1420 561.5 L 1425 538.5 L 1431 520.5 Q 1444.5 487.5 1470.5 467 Q 1491 453.5 1508 436.5 Q 1514.9 429.1 1518 419 L 1520.5 418 Z " /><path fill="rgb(0,0,0)" stroke="rgb(0,0,0)" stroke-width="1" opacity="0.996078431372549" d="M 1011.5 586 L 1020.5 586 Q 1027.9 588.6 1032 594.5 Q 1034.9 598.1 1034 605.5 Q 1031.9 613.4 1025.5 617 Q 1020.7 619.3 1012.5 618 L 1003 611.5 L 1000 605.5 L 1000 598.5 Q 1001.8 591.3 1007.5 588 L 1011.5 586 Z " /><path fill="rgb(0,0,0)" stroke="rgb(0,0,0)" stroke-width="1" opacity="0.996078431372549" d="M 1613.5 586 L 1621.5 586 L 1630 591.5 Q 1634.5 596 1633 606.5 L 1626.5 615 L 1616.5 618 L 1609.5 616 L 1604 610.5 Q 1600.3 606.2 1602 596.5 L 1607.5 589 L 1613.5 586 Z " /><path fill="rgb(0,0,0)" stroke="rgb(0,0,0)" stroke-width="1" opacity="0.996078431372549" d="M 1813.5 586 L 1822.5 586 L 1832 593.5 Q 1835 597.5 1834 605.5 L 1828.5 614 Q 1824.5 618 1816.5 618 Q 1809.8 616.8 1806 612.5 Q 1801 608.5 1802 598.5 Q 1803.8 591.3 1809.5 588 L 1813.5 586 Z " /><path fill="rgb(0,0,0)" stroke="rgb(0,0,0)" stroke-width="1" opacity="0.996078431372549" d="M 211.5 587 L 220.5 587 L 230 594.5 Q 232.9 598.1 232 605.5 Q 230.2 612.7 224.5 616 Q 220.5 619.5 211.5 618 L 204 614 L 200 605.5 L 200 599.5 Q 201.8 592.3 207.5 589 L 211.5 587 Z " /><path fill="rgb(0,0,0)" stroke="rgb(0,0,0)" stroke-width="1" opacity="0.996078431372549" d="M 412.5 587 L 420.5 587 L 429 592.5 Q 433.5 597 432 607.5 L 425.5 616 Q 421.2 619.7 411.5 618 L 404 612.5 Q 399.1 608.4 401 597.5 L 406.5 590 L 412.5 587 Z " /><path fill="rgb(0,0,0)" stroke="rgb(0,0,0)" stroke-width="1" opacity="0.996078431372549" d="M 1613.5 771 Q 1626.8 769.8 1631 777.5 Q 1634.7 781.8 1633 791.5 L 1626.5 800 L 1616.5 803 L 1609.5 801 L 1604 795.5 Q 1600.3 791.2 1602 781.5 L 1607.5 774 L 1613.5 771 Z " /><path fill="rgb(0,0,0)" stroke="rgb(0,0,0)" stroke-width="1" opacity="0.996078431372549" d="M 1813.5 771 L 1822.5 771 L 1832 778.5 Q 1835 782.5 1834 790.5 L 1827.5 800 Q 1823.5 803 1816.5 803 Q 1809.8 801.8 1806 797.5 Q 1801 793.5 1802 783.5 Q 1803.8 776.3 1809.5 773 L 1813.5 771 Z " /><path fill="rgb(0,0,0)" stroke="rgb(0,0,0)" stroke-width="1" opacity="0.996078431372549" d="M 211.5 772 L 221.5 772 L 229 777.5 L 232 783.5 L 232 791.5 L 226.5 800 Q 222 804.5 211.5 803 L 203 796.5 Q 199.5 793 200 785.5 Q 201.4 777.4 207.5 774 L 211.5 772 Z " /><path fill="rgb(0,0,0)" stroke="rgb(0,0,0)" stroke-width="1" opacity="0.996078431372549" d="M 411.5 772 Q 426.2 769.8 430 778.5 Q 433.7 782.8 432 792.5 L 425.5 801 Q 421.2 804.7 411.5 803 L 404 797.5 Q 399.1 793.4 401 782.5 L 407.5 774 L 411.5 772 Z " /><path fill="rgb(0,0,0)" stroke="rgb(0,0,0)" stroke-width="1" opacity="0.996078431372549" d="M 822.5 886 L 1054.5 886 L 1055.5 887 L 1073.5 887 L 1074.5 888 L 1094.5 889 L 1109.5 892 Q 1121.9 895.1 1129 903.5 L 1133 912.5 L 1134 924.5 L 1135 925.5 L 1135 968 L 1126.5 968 L 1125.5 967 L 1022.5 967 L 1022.5 968 Q 1028.3 969.3 1031 973.5 Q 1035.5 979 1034 990.5 Q 1032.4 999.4 1025.5 1003 L 1016.5 1005 Q 1008 1003.5 1004 997.5 L 999 987.5 L 999 980.5 Q 1001.1 972.6 1007.5 969 L 1011 967.5 L 908.5 967 L 907.5 968 L 884.5 968 L 883.5 969 L 861.5 970 L 846.5 973 L 837.5 976 L 833 979.5 L 833 993.5 L 826.5 1002 L 820 1005.5 L 820 1023.5 L 821 1024.5 L 821 1158 Q 827.6 1159.1 831 1164.5 Q 834.7 1168.8 833 1178.5 L 826.5 1187 L 821 1189 L 821 1204.5 L 822 1205.5 L 822 1216.5 L 823 1217.5 L 824 1231.5 L 827 1247.5 L 834 1271.5 Q 846.1 1303.4 869.5 1324 L 905 1353.5 Q 915.1 1363.9 920 1379.5 L 922 1389.5 L 922 1398.5 L 923 1399.5 L 923 1410.5 L 920 1424.5 L 910.5 1439 Q 902.1 1446.1 890.5 1450 L 872.5 1454 L 851.5 1455 L 850.5 1456 L 506.5 1456 L 505.5 1455 L 484.5 1454 L 469.5 1451 Q 452.4 1446.6 442 1435.5 Q 435.5 1428 433 1416.5 L 432 1391.5 L 436 1375 L 763.5 1375 L 764.5 1374 L 789.5 1373 L 808.5 1369 Q 824 1364.5 833 1353.5 L 840 1339.5 L 842 1320.5 L 841 1319.5 L 840 1303.5 L 836 1290.5 Q 830.2 1277.8 820.5 1269 L 780 1234.5 Q 764.3 1218.2 755 1195.5 L 747 1171.5 L 742 1144.5 L 741 1126.5 L 740 1125.5 L 740 1107.5 L 739 1106.5 L 739 921.5 L 742 908.5 L 750.5 898 L 758.5 894 L 773.5 890 L 786.5 889 L 787.5 888 L 798.5 888 L 799.5 887 L 821.5 887 L 822.5 886 Z " /><path fill="rgb(0,0,0)" stroke="rgb(0,0,0)" stroke-width="1" opacity="0.996078431372549" d="M 213.5 967 Q 225.6 966.9 230 974.5 Q 233.7 980.3 232 991.5 L 226.5 1001 Q 222.5 1005 214.5 1005 Q 206.7 1003.8 203 998.5 Q 198.2 993.3 200 981.5 Q 201.6 972.6 208.5 969 L 213.5 967 Z " /><path fill="rgb(0,0,0)" stroke="rgb(0,0,0)" stroke-width="1" opacity="0.996078431372549" d="M 413.5 967 Q 427 966.5 431 975.5 L 432 978.5 L 432 993.5 L 425.5 1002 Q 421.2 1005.7 411.5 1004 L 403 997.5 L 401 993.5 L 401 978.5 L 407.5 970 L 413.5 967 Z " /><path fill="rgb(0,0,0)" stroke="rgb(0,0,0)" stroke-width="1" opacity="0.996078431372549" d="M 1612.5 967 Q 1627.2 964.8 1631 973.5 Q 1634.7 977.8 1633 987.5 L 1625.5 997 L 1615.5 1000 L 1608.5 998 L 1603 992.5 Q 1599.3 988.2 1601 978.5 L 1608.5 969 L 1612.5 967 Z " /><path fill="rgb(0,0,0)" stroke="rgb(0,0,0)" stroke-width="1" opacity="0.996078431372549" d="M 1813.5 967 Q 1828.3 965.3 1832 974.5 Q 1834.9 978.1 1834 985.5 Q 1831.9 992.9 1826.5 997 L 1819.5 1000 L 1814.5 1000 Q 1806.4 998.6 1803 992.5 Q 1799.9 988.1 1801 979.5 L 1806 971 L 1813.5 967 Z " /><path fill="rgb(0,0,0)" stroke="rgb(0,0,0)" stroke-width="1" opacity="0.996078431372549" d="M 1010.5 1153 L 1019.5 1153 L 1029 1160.5 L 1034 1170.5 L 1034 1176.5 Q 1031.9 1184.4 1025.5 1188 L 1013.5 1189 Q 1006.6 1187.4 1004 1181.5 L 999 1172.5 L 999 1165.5 Q 1000.8 1158.3 1006.5 1155 L 1010.5 1153 Z " /><path fill="rgb(0,0,0)" stroke="rgb(0,0,0)" stroke-width="1" opacity="0.996078431372549" d="M 1612.5 1153 L 1620.5 1153 L 1629 1158.5 Q 1633.5 1163 1632 1173.5 L 1625.5 1182 Q 1620.8 1185.8 1610.5 1184 L 1603 1177.5 Q 1599.3 1173.2 1601 1163.5 L 1606.5 1156 L 1612.5 1153 Z " /><path fill="rgb(0,0,0)" stroke="rgb(0,0,0)" stroke-width="1" opacity="0.996078431372549" d="M 1812.5 1153 L 1821.5 1153 L 1831 1160.5 Q 1834 1164.5 1833 1172.5 L 1827.5 1181 Q 1823.1 1186.1 1811.5 1184 L 1805 1179.5 Q 1800 1175.5 1801 1165.5 Q 1802.8 1158.3 1808.5 1155 L 1812.5 1153 Z " /><path fill="rgb(0,0,0)" stroke="rgb(0,0,0)" stroke-width="1" opacity="0.996078431372549" d="M 210.5 1158 L 221.5 1158 L 228 1162 L 232 1170.5 L 232 1176.5 Q 230.2 1183.7 224.5 1187 Q 220.5 1190.5 211.5 1189 L 204 1185 L 200 1176.5 L 200 1170.5 L 204 1162 L 210.5 1158 Z " /><path fill="rgb(0,0,0)" stroke="rgb(0,0,0)" stroke-width="1" opacity="0.996078431372549" d="M 411.5 1158 Q 426.2 1155.8 430 1164.5 Q 433.7 1168.8 432 1178.5 L 425.5 1187 Q 421.2 1190.7 411.5 1189 L 403 1182.5 Q 399.3 1178.2 401 1168.5 L 407.5 1160 L 411.5 1158 Z " /><path fill="rgb(0,0,0)" stroke="rgb(0,0,0)" stroke-width="1" opacity="0.996078431372549" d="M 1011.5 1343 Q 1024.9 1342.1 1029 1350.5 L 1034 1360.5 L 1034 1367.5 L 1027.5 1377 Q 1023.5 1380 1016.5 1380 Q 1009.8 1378.8 1006 1374.5 L 1000 1365.5 L 999 1355.5 Q 1000.8 1348.3 1006.5 1345 L 1011.5 1343 Z " /><path fill="rgb(0,0,0)" stroke="rgb(0,0,0)" stroke-width="1" opacity="0.996078431372549" d="M 1613.5 1343 Q 1626.1 1342.4 1630 1350.5 Q 1633.5 1354.5 1632 1363.5 L 1624.5 1373 Q 1620.9 1375.9 1613.5 1375 L 1605 1371 L 1601 1363.5 L 1601 1353.5 L 1605 1347 L 1613.5 1343 Z " /><path fill="rgb(0,0,0)" stroke="rgb(0,0,0)" stroke-width="1" opacity="0.996078431372549" d="M 1813.5 1343 Q 1826 1342 1830 1349.5 Q 1834.2 1353.3 1833 1362.5 Q 1831.5 1369 1826.5 1372 L 1823.5 1374 L 1814.5 1375 Q 1807.1 1373.9 1804 1368.5 Q 1800.1 1364.4 1801 1355.5 L 1807.5 1346 L 1813.5 1343 Z " /><path fill="rgb(0,0,0)" stroke="rgb(0,0,0)" stroke-width="1" opacity="0.996078431372549" d="M 211.5 1348 L 220.5 1348 L 230 1355.5 Q 232.9 1359.1 232 1366.5 L 226.5 1376 Q 222.5 1380 214.5 1380 Q 206.7 1378.8 203 1373.5 L 200 1367.5 L 200 1360.5 Q 201.8 1353.3 207.5 1350 L 211.5 1348 Z " /><path fill="rgb(0,0,0)" stroke="rgb(0,0,0)" stroke-width="1" opacity="0.996078431372549" d="M 404.5 1373 L 428 1374.5 L 422.5 1379 L 415.5 1380 L 408.5 1378 L 404.5 1373 Z " /><path fill="rgb(0,0,0)" stroke="rgb(0,0,0)" stroke-width="1" opacity="0.996078431372549" d="M 1011.5 1528 Q 1024.9 1527.1 1029 1535.5 L 1034 1545.5 L 1034 1552.5 L 1027.5 1562 Q 1023.5 1565 1016.5 1565 Q 1009.8 1563.8 1006 1559.5 L 1000 1549.5 L 999 1541.5 Q 1000.6 1534.5 1005.5 1531 L 1011.5 1528 Z " /><path fill="rgb(0,0,0)" stroke="rgb(0,0,0)" stroke-width="1" opacity="0.996078431372549" d="M 1212.5 1528 L 1219.5 1528 L 1228 1533.5 Q 1232.5 1538 1231 1548.5 Q 1229.4 1555.4 1223.5 1558 Q 1219.9 1560.9 1212.5 1560 Q 1205.3 1558.2 1202 1552.5 Q 1198.5 1548.5 1200 1539.5 Q 1201.6 1532.6 1207.5 1530 L 1212.5 1528 Z " /><path fill="rgb(0,0,0)" stroke="rgb(0,0,0)" stroke-width="1" opacity="0.996078431372549" d="M 1412.5 1528 Q 1425.9 1527.1 1430 1535.5 Q 1433 1539.5 1432 1547.5 Q 1430.2 1554.7 1424.5 1558 L 1418.5 1560 L 1413.5 1560 Q 1406.1 1558.9 1403 1553.5 L 1400 1546.5 L 1400 1541.5 Q 1401.5 1534.5 1406.5 1531 L 1412.5 1528 Z " /><path fill="rgb(0,0,0)" stroke="rgb(0,0,0)" stroke-width="1" opacity="0.996078431372549" d="M 1613.5 1528 Q 1624.5 1527.5 1629 1533.5 Q 1633.5 1538 1632 1548.5 L 1624.5 1558 L 1618.5 1560 L 1613.5 1560 L 1605 1556 L 1601 1548.5 L 1601 1538.5 L 1605 1532 L 1613.5 1528 Z " /><path fill="rgb(0,0,0)" stroke="rgb(0,0,0)" stroke-width="1" opacity="0.996078431372549" d="M 1813.5 1528 Q 1826 1527 1830 1534.5 Q 1834.2 1538.3 1833 1547.5 Q 1831.5 1554 1826.5 1557 L 1823.5 1559 L 1814.5 1560 Q 1807.1 1558.9 1804 1553.5 Q 1800.1 1549.4 1801 1540.5 L 1807.5 1531 L 1813.5 1528 Z " /><path fill="rgb(0,0,0)" stroke="rgb(0,0,0)" stroke-width="1" opacity="0.996078431372549" d="M 212.5 1533 L 220.5 1533 L 230 1540.5 Q 233 1544.5 232 1552.5 L 225.5 1562 L 215.5 1565 L 208.5 1563 L 202 1556.5 L 200 1546.5 Q 201.8 1538.8 207.5 1535 L 212.5 1533 Z " /><path fill="rgb(0,0,0)" stroke="rgb(0,0,0)" stroke-width="1" opacity="0.996078431372549" d="M 412.5 1533 Q 425.8 1531.8 430 1539.5 Q 433.7 1543.8 432 1553.5 L 425.5 1562 L 422.5 1564 L 415.5 1565 L 410.5 1564 L 403 1557.5 Q 399.3 1553.2 401 1543.5 L 406.5 1536 L 412.5 1533 Z " /><path fill="rgb(0,0,0)" stroke="rgb(0,0,0)" stroke-width="1" opacity="0.996078431372549" d="M 612.5 1533 L 621.5 1533 L 631 1540.5 Q 634 1544.5 633 1552.5 L 626.5 1562 L 616.5 1565 L 611.5 1564 L 605 1559.5 L 601 1551.5 L 601 1546.5 Q 602.4 1538.4 608.5 1535 L 612.5 1533 Z " /><path fill="rgb(0,0,0)" stroke="rgb(0,0,0)" stroke-width="1" opacity="0.996078431372549" d="M 813.5 1533 Q 826.8 1531.8 831 1539.5 Q 834.7 1543.8 833 1553.5 L 826.5 1562 L 816.5 1565 L 809.5 1563 L 804 1557.5 Q 800.3 1553.2 802 1543.5 L 807.5 1536 L 813.5 1533 Z " /><path fill="rgb(0,0,0)" stroke="rgb(0,0,0)" stroke-width="1" opacity="0.996078431372549" d="M 1011.5 1724 L 1019.5 1724 L 1029 1731.5 L 1034 1741.5 L 1034 1747.5 Q 1031.9 1755.4 1025.5 1759 L 1013.5 1760 Q 1006.6 1758.4 1004 1752.5 L 1000 1745.5 L 999 1737.5 Q 1000.9 1729.8 1006.5 1726 L 1011.5 1724 Z " /><path fill="rgb(0,0,0)" stroke="rgb(0,0,0)" stroke-width="1" opacity="0.996078431372549" d="M 1211.5 1724 Q 1224.8 1722.8 1229 1730.5 Q 1232.7 1734.8 1231 1744.5 L 1224.5 1753 L 1221.5 1755 L 1209.5 1755 L 1202 1748.5 Q 1198.3 1744.2 1200 1734.5 L 1205.5 1727 L 1211.5 1724 Z " /><path fill="rgb(0,0,0)" stroke="rgb(0,0,0)" stroke-width="1" opacity="0.996078431372549" d="M 1411.5 1724 L 1420.5 1724 L 1430 1731.5 Q 1433 1735.5 1432 1743.5 L 1425.5 1753 Q 1420.8 1756.8 1410.5 1755 L 1404 1750.5 L 1400 1742.5 L 1400 1737.5 Q 1401.4 1729.4 1407.5 1726 L 1411.5 1724 Z " /><path fill="rgb(0,0,0)" stroke="rgb(0,0,0)" stroke-width="1" opacity="0.996078431372549" d="M 1612.5 1724 Q 1625.8 1722.8 1630 1730.5 Q 1633.7 1734.8 1632 1744.5 L 1625.5 1753 L 1622.5 1755 L 1610.5 1755 L 1603 1748.5 Q 1599.3 1744.2 1601 1734.5 L 1606.5 1727 L 1612.5 1724 Z " /><path fill="rgb(0,0,0)" stroke="rgb(0,0,0)" stroke-width="1" opacity="0.996078431372549" d="M 1812.5 1724 L 1821.5 1724 L 1831 1731.5 Q 1834 1735.5 1833 1743.5 L 1826.5 1753 Q 1821.8 1756.8 1811.5 1755 L 1804 1749.5 Q 1800.1 1745.4 1801 1736.5 Q 1802.8 1729.3 1808.5 1726 L 1812.5 1724 Z " /><path fill="rgb(0,0,0)" stroke="rgb(0,0,0)" stroke-width="1" opacity="0.996078431372549" d="M 211.5 1729 L 221.5 1729 L 229 1734.5 L 232 1740.5 L 232 1748.5 L 226.5 1757 Q 222 1761.5 211.5 1760 L 203 1753.5 Q 199.5 1750 200 1742.5 Q 201.4 1734.4 207.5 1731 L 211.5 1729 Z " /><path fill="rgb(0,0,0)" stroke="rgb(0,0,0)" stroke-width="1" opacity="0.996078431372549" d="M 411.5 1729 Q 426.2 1726.8 430 1735.5 Q 433.7 1739.8 432 1749.5 L 425.5 1758 Q 421.2 1761.7 411.5 1760 L 404 1754.5 Q 399.1 1750.4 401 1739.5 L 407.5 1731 L 411.5 1729 Z " /><path fill="rgb(0,0,0)" stroke="rgb(0,0,0)" stroke-width="1" opacity="0.996078431372549" d="M 612.5 1729 L 622.5 1729 L 629 1733 L 633 1741.5 L 633 1748.5 L 629 1756 L 621.5 1760 L 612.5 1760 L 603 1752.5 L 601 1746.5 L 601 1741.5 Q 602.8 1734.3 608.5 1731 L 612.5 1729 Z " /><path fill="rgb(0,0,0)" stroke="rgb(0,0,0)" stroke-width="1" opacity="0.996078431372549" d="M 812.5 1729 Q 827.2 1726.8 831 1735.5 Q 834.7 1739.8 833 1749.5 L 826.5 1758 Q 822.2 1761.7 812.5 1760 L 804 1753.5 Q 800.3 1749.2 802 1739.5 L 808.5 1731 L 812.5 1729 Z " /></svg>